<?xml version="1.0" encoding="UTF-8"?>
<svg width="181px" height="28px" viewBox="0 0 181 28" version="1.1" xmlns="http://www.w3.org/2000/svg" xmlns:xlink="http://www.w3.org/1999/xlink">
    <!-- Generator: Sketch 55.2 (78181) - https://sketchapp.com -->
    <title>Artboard Copy 41</title>
    <desc>Created with Sketch.</desc>
    <g id="Artboard-Copy-41" stroke="none" stroke-width="1" fill="none" fill-rule="evenodd">
        <path d="M25.796875,6.72265625 L30.2402344,6.72265625 C32.2649841,6.72265625 33.7346959,7.01073931 34.6494141,7.58691406 C35.5641322,8.16308882 36.0214844,9.0794208 36.0214844,10.3359375 C36.0214844,11.1888063 35.8212911,11.8886691 35.4208984,12.4355469 C35.0205058,12.9824246 34.4882846,13.3111974 33.8242188,13.421875 L33.8242188,13.5195312 C34.7291712,13.7213552 35.3818339,14.0989556 35.7822266,14.6523438 C36.1826192,15.2057319 36.3828125,15.9414017 36.3828125,16.859375 C36.3828125,18.1614648 35.9124396,19.1770797 34.9716797,19.90625 C34.0309198,20.6354203 32.7532633,21 31.1386719,21 L25.796875,21 L25.796875,6.72265625 Z M28.8242188,12.3769531 L30.5820312,12.3769531 C31.4023479,12.3769531 31.9964174,12.2500013 32.3642578,11.9960938 C32.7320982,11.7421862 32.9160156,11.3222686 32.9160156,10.7363281 C32.9160156,10.1894504 32.7158223,9.79720171 32.3154297,9.55957031 C31.9150371,9.32193892 31.2819054,9.203125 30.4160156,9.203125 L28.8242188,9.203125 L28.8242188,12.3769531 Z M28.8242188,14.7792969 L28.8242188,18.5 L30.796875,18.5 C31.6302125,18.5 32.2454407,18.3404964 32.6425781,18.0214844 C33.0397155,17.7024724 33.2382812,17.214196 33.2382812,16.5566406 C33.2382812,15.3717389 32.3919355,14.7792969 30.6992188,14.7792969 L28.8242188,14.7792969 Z M45.9335938,21 L45.3574219,19.515625 L45.2792969,19.515625 C44.7779923,20.1471386 44.2620469,20.5849597 43.7314453,20.8291016 C43.2008437,21.0732434 42.5091188,21.1953125 41.65625,21.1953125 C40.6080677,21.1953125 39.7828806,20.8958363 39.1806641,20.296875 C38.5784475,19.6979137 38.2773438,18.8450576 38.2773438,17.7382812 C38.2773438,16.5794213 38.6826131,15.7249376 39.4931641,15.1748047 C40.303715,14.6246717 41.5260335,14.3203128 43.1601562,14.2617188 L45.0546875,14.203125 L45.0546875,13.7246094 C45.0546875,12.617833 44.4882869,12.0644531 43.3554688,12.0644531 C42.4830686,12.0644531 41.4576882,12.3281224 40.2792969,12.8554688 L39.2929688,10.84375 C40.5494854,10.1861946 41.9427007,9.85742188 43.4726562,9.85742188 C44.9375073,9.85742188 46.060543,10.1764291 46.8417969,10.8144531 C47.6230508,11.4524771 48.0136719,12.4225195 48.0136719,13.7246094 L48.0136719,21 L45.9335938,21 Z M45.0546875,15.9414062 L43.9023438,15.9804688 C43.036454,16.0065105 42.3919292,16.162759 41.96875,16.4492188 C41.5455708,16.7356785 41.3339844,17.1718721 41.3339844,17.7578125 C41.3339844,18.5976604 41.8157504,19.0175781 42.7792969,19.0175781 C43.4694045,19.0175781 44.0211568,18.8190124 44.4345703,18.421875 C44.8479838,18.0247376 45.0546875,17.4973991 45.0546875,16.8398438 L45.0546875,15.9414062 Z M55.5136719,21.1953125 C52.1152174,21.1953125 50.4160156,19.3300968 50.4160156,15.5996094 C50.4160156,13.7441313 50.8782506,12.3265023 51.8027344,11.3466797 C52.7272182,10.3668571 54.0520747,9.87695312 55.7773438,9.87695312 C57.0403709,9.87695312 58.1731721,10.1243465 59.1757812,10.6191406 L58.296875,12.9238281 C57.8281227,12.7350251 57.3919291,12.5804042 56.9882812,12.4599609 C56.5846334,12.3395176 56.1809916,12.2792969 55.7773438,12.2792969 C54.2278568,12.2792969 53.453125,13.3795463 53.453125,15.5800781 C53.453125,17.7155055 54.2278568,18.7832031 55.7773438,18.7832031 C56.3502633,18.7832031 56.8808569,18.7067065 57.3691406,18.5537109 C57.8574243,18.4007154 58.3457007,18.16146 58.8339844,17.8359375 L58.8339844,20.3847656 C58.3522111,20.6907567 57.8655624,20.9023432 57.3740234,21.0195312 C56.8824845,21.1367193 56.2623735,21.1953125 55.5136719,21.1953125 Z M64.2246094,15.0625 L65.5234375,13.4023438 L68.5800781,10.0820312 L71.9394531,10.0820312 L67.6035156,14.8183594 L72.203125,21 L68.765625,21 L65.6210938,16.5761719 L64.3417969,17.6015625 L64.3417969,21 L61.3632812,21 L61.3632812,5.8046875 L64.3417969,5.8046875 L64.3417969,12.5820312 L64.1855469,15.0625 L64.2246094,15.0625 Z M83.5605469,18.8222656 C84.0813828,18.8222656 84.7063766,18.7083345 85.4355469,18.4804688 L85.4355469,20.6972656 C84.6933557,21.0292985 83.7819064,21.1953125 82.7011719,21.1953125 C81.5097597,21.1953125 80.6422553,20.8942087 80.0986328,20.2919922 C79.5550103,19.6897756 79.2832031,18.7864644 79.2832031,17.5820312 L79.2832031,12.3183594 L77.8574219,12.3183594 L77.8574219,11.0585938 L79.4980469,10.0625 L80.3574219,7.7578125 L82.2617188,7.7578125 L82.2617188,10.0820312 L85.3183594,10.0820312 L85.3183594,12.3183594 L82.2617188,12.3183594 L82.2617188,17.5820312 C82.2617188,18.0052104 82.3805327,18.3177073 82.6181641,18.5195312 C82.8557955,18.7213552 83.1699199,18.8222656 83.5605469,18.8222656 Z M90.015625,15.5214844 C90.015625,16.6022189 90.1930321,17.4192681 90.5478516,17.9726562 C90.902671,18.5260444 91.4804647,18.8027344 92.28125,18.8027344 C93.0755248,18.8027344 93.6468082,18.527672 93.9951172,17.9775391 C94.3434262,17.4274061 94.5175781,16.6087294 94.5175781,15.5214844 C94.5175781,14.4407498 94.3417986,13.630211 93.9902344,13.0898438 C93.6386701,12.5494765 93.062504,12.2792969 92.2617188,12.2792969 C91.4674439,12.2792969 90.894533,12.5478489 90.5429688,13.0849609 C90.1914045,13.622073 90.015625,14.4342394 90.015625,15.5214844 Z M97.5644531,15.5214844 C97.5644531,17.298837 97.0957078,18.6887971 96.1582031,19.6914062 C95.2206984,20.6940154 93.9153729,21.1953125 92.2421875,21.1953125 C91.1940052,21.1953125 90.2695353,20.9658226 89.46875,20.5068359 C88.6679647,20.0478493 88.0527365,19.3886762 87.6230469,18.5292969 C87.1933572,17.6699176 86.9785156,16.6673234 86.9785156,15.5214844 C86.9785156,13.7376213 87.4440058,12.3509164 88.375,11.3613281 C89.3059942,10.3717398 90.6145749,9.87695312 92.3007812,9.87695312 C93.3489636,9.87695312 94.2734335,10.1048154 95.0742188,10.5605469 C95.875004,11.0162783 96.4902322,11.6705687 96.9199219,12.5234375 C97.3496115,13.3763063 97.5644531,14.3756453 97.5644531,15.5214844 Z M110.875,12.9824219 L116.539062,12.9824219 L116.539062,20.3847656 C115.621089,20.6842463 114.75684,20.8942051 113.946289,21.0146484 C113.135738,21.1350917 112.307296,21.1953125 111.460938,21.1953125 C109.305979,21.1953125 107.660487,20.5621808 106.524414,19.2958984 C105.388341,18.0296161 104.820312,16.2116004 104.820312,13.8417969 C104.820312,11.5370979 105.479486,9.74024082 106.797852,8.45117188 C108.116218,7.16210293 109.943999,6.51757812 112.28125,6.51757812 C113.746101,6.51757812 115.158847,6.81054395 116.519531,7.39648438 L115.513672,9.81835938 C114.472,9.29752344 113.388026,9.03710938 112.261719,9.03710938 C110.953118,9.03710938 109.904952,9.47655811 109.117188,10.3554688 C108.329423,11.2343794 107.935547,12.4160082 107.935547,13.9003906 C107.935547,15.4498775 108.252927,16.6331339 108.887695,17.4501953 C109.522464,18.2672567 110.445306,18.6757812 111.65625,18.6757812 C112.287764,18.6757812 112.929033,18.6106777 113.580078,18.4804688 L113.580078,15.5019531 L110.875,15.5019531 L110.875,12.9824219 Z M126.636719,21 L126.060547,19.515625 L125.982422,19.515625 C125.481117,20.1471386 124.965172,20.5849597 124.43457,20.8291016 C123.903969,21.0732434 123.212244,21.1953125 122.359375,21.1953125 C121.311193,21.1953125 120.486006,20.8958363 119.883789,20.296875 C119.281573,19.6979137 118.980469,18.8450576 118.980469,17.7382812 C118.980469,16.5794213 119.385738,15.7249376 120.196289,15.1748047 C121.00684,14.6246717 122.229158,14.3203128 123.863281,14.2617188 L125.757812,14.203125 L125.757812,13.7246094 C125.757812,12.617833 125.191412,12.0644531 124.058594,12.0644531 C123.186194,12.0644531 122.160813,12.3281224 120.982422,12.8554688 L119.996094,10.84375 C121.25261,10.1861946 122.645826,9.85742188 124.175781,9.85742188 C125.640632,9.85742188 126.763668,10.1764291 127.544922,10.8144531 C128.326176,11.4524771 128.716797,12.4225195 128.716797,13.7246094 L128.716797,21 L126.636719,21 Z M125.757812,15.9414062 L124.605469,15.9804688 C123.739579,16.0065105 123.095054,16.162759 122.671875,16.4492188 C122.248696,16.7356785 122.037109,17.1718721 122.037109,17.7578125 C122.037109,18.5976604 122.518875,19.0175781 123.482422,19.0175781 C124.172529,19.0175781 124.724282,18.8190124 125.137695,18.421875 C125.551109,18.0247376 125.757812,17.4973991 125.757812,16.8398438 L125.757812,15.9414062 Z M134.761719,21 L131.783203,21 L131.783203,5.8046875 L134.761719,5.8046875 L134.761719,21 Z M144.820312,21 L144.244141,19.515625 L144.166016,19.515625 C143.664711,20.1471386 143.148766,20.5849597 142.618164,20.8291016 C142.087562,21.0732434 141.395838,21.1953125 140.542969,21.1953125 C139.494786,21.1953125 138.669599,20.8958363 138.067383,20.296875 C137.465166,19.6979137 137.164062,18.8450576 137.164062,17.7382812 C137.164062,16.5794213 137.569332,15.7249376 138.379883,15.1748047 C139.190434,14.6246717 140.412752,14.3203128 142.046875,14.2617188 L143.941406,14.203125 L143.941406,13.7246094 C143.941406,12.617833 143.375006,12.0644531 142.242188,12.0644531 C141.369787,12.0644531 140.344407,12.3281224 139.166016,12.8554688 L138.179688,10.84375 C139.436204,10.1861946 140.829419,9.85742188 142.359375,9.85742188 C143.824226,9.85742188 144.947262,10.1764291 145.728516,10.8144531 C146.50977,11.4524771 146.900391,12.4225195 146.900391,13.7246094 L146.900391,21 L144.820312,21 Z M143.941406,15.9414062 L142.789062,15.9804688 C141.923173,16.0065105 141.278648,16.162759 140.855469,16.4492188 C140.43229,16.7356785 140.220703,17.1718721 140.220703,17.7578125 C140.220703,18.5976604 140.702469,19.0175781 141.666016,19.0175781 C142.356123,19.0175781 142.907876,18.8190124 143.321289,18.421875 C143.734703,18.0247376 143.941406,17.4973991 143.941406,16.8398438 L143.941406,15.9414062 Z M152.203125,15.4238281 L148.6875,10.0820312 L152.066406,10.0820312 L154.185547,13.5585938 L156.324219,10.0820312 L159.703125,10.0820312 L156.148438,15.4238281 L159.869141,21 L156.480469,21 L154.185547,17.2597656 L151.880859,21 L148.501953,21 L152.203125,15.4238281 Z M161.402344,7.25976562 C161.402344,6.28970869 161.942703,5.8046875 163.023438,5.8046875 C164.104172,5.8046875 164.644531,6.28970869 164.644531,7.25976562 C164.644531,7.72200752 164.509441,8.08170444 164.239258,8.33886719 C163.969074,8.59602993 163.563805,8.72460938 163.023438,8.72460938 C161.942703,8.72460938 161.402344,8.23633301 161.402344,7.25976562 Z M164.507812,21 L161.529297,21 L161.529297,10.0820312 L164.507812,10.0820312 L164.507812,21 Z M174.566406,21 L173.990234,19.515625 L173.912109,19.515625 C173.410805,20.1471386 172.894859,20.5849597 172.364258,20.8291016 C171.833656,21.0732434 171.141931,21.1953125 170.289062,21.1953125 C169.24088,21.1953125 168.415693,20.8958363 167.813477,20.296875 C167.21126,19.6979137 166.910156,18.8450576 166.910156,17.7382812 C166.910156,16.5794213 167.315426,15.7249376 168.125977,15.1748047 C168.936527,14.6246717 170.158846,14.3203128 171.792969,14.2617188 L173.6875,14.203125 L173.6875,13.7246094 C173.6875,12.617833 173.121099,12.0644531 171.988281,12.0644531 C171.115881,12.0644531 170.090501,12.3281224 168.912109,12.8554688 L167.925781,10.84375 C169.182298,10.1861946 170.575513,9.85742188 172.105469,9.85742188 C173.57032,9.85742188 174.693355,10.1764291 175.474609,10.8144531 C176.255863,11.4524771 176.646484,12.4225195 176.646484,13.7246094 L176.646484,21 L174.566406,21 Z M173.6875,15.9414062 L172.535156,15.9804688 C171.669267,16.0065105 171.024742,16.162759 170.601562,16.4492188 C170.178383,16.7356785 169.966797,17.1718721 169.966797,17.7578125 C169.966797,18.5976604 170.448563,19.0175781 171.412109,19.0175781 C172.102217,19.0175781 172.653969,18.8190124 173.067383,18.421875 C173.480796,18.0247376 173.6875,17.4973991 173.6875,16.8398438 L173.6875,15.9414062 Z" id="BacktoGalaxia" fill="#FFFFFF" fill-rule="nonzero"></path>
        <polygon id="Triangle" fill="#FFFFFF" transform="translate(11.500000, 13.500000) rotate(-90.000000) translate(-11.500000, -13.500000) " points="11.5 8 17 19 6 19"></polygon>
    </g>
</svg>